
<svg width="455px" height="437px" viewBox="0 0 455 437" version="1.1" xmlns="http://www.w3.org/2000/svg" xmlns:xlink="http://www.w3.org/1999/xlink">
    <!-- Generator: Sketch 43 (38999) - http://www.bohemiancoding.com/sketch -->
    <desc>Created with Sketch.</desc>
    <defs>
        <path d="M22.489275,217.99168 C22.489275,109.80048 114.00195,21.77904 226.484387,21.77904 C338.968987,21.77904 430.4795,109.80048 430.4795,217.99376 C430.4795,326.18496 338.968987,414.2064 226.484387,414.2064 C113.999787,414.2064 22.489275,326.18496 22.489275,217.99168 Z M226.484387,0.97904 L226.484387,0.97904 C101.876812,0.97904 0.864275,98.14 0.864275,217.99168 L0.864275,217.99376 C0.864275,337.84544 101.876812,435.0064 226.484387,435.0064 C351.091962,435.0064 452.1045,337.84544 452.1045,217.99376 L452.1045,217.99168 C452.1045,98.14 351.091962,0.97904 226.484387,0.97904 L226.484387,0.97904 Z" id="path-1"></path>
        <path d="M251.847002,311.466119 C216.25582,334.040418 173.624106,347.17904 127.801677,347.17904 C80.3586007,347.17904 36.3359288,333.094609 0.00657717305,309.035651 L0.00657717305,0.20030094 L251.847002,0.20030094 L251.847002,311.466119 L251.847002,311.466119 Z" id="path-2"></path>
    </defs>
    <g id="Page-1" stroke="none" stroke-width="1" fill="none" fill-rule="evenodd">
        <g id="53032-O7D1DN" transform="translate(-112.000000, -639.000000)">
            <g id="female-persone" transform="translate(113.000000, 640.000000)">
                <path d="M430.4795,217.99376 C430.4795,109.80048 338.968987,21.77904 226.484387,21.77904 C114.00195,21.77904 22.489275,109.80048 22.489275,217.99168 C22.489275,326.18496 113.999787,414.2064 226.484387,414.2064 C338.968987,414.2064 430.4795,326.18496 430.4795,217.99376" id="Fill-200" fill="#78C6BD"></path>
                <g id="Fill-201">
                    <use fill="#FFFFFF" fill-rule="evenodd" xlink:href="#path-1"></use>
                    <path stroke="#78C5BD" stroke-width="1" d="M22.989275,217.99168 C22.989275,110.081067 114.273835,22.27904 226.484387,22.27904 C338.69669,22.27904 429.9795,110.08067 429.9795,217.99376 C429.9795,325.905091 338.696356,413.7064 226.484387,413.7064 C114.272085,413.7064 22.989275,325.90477 22.989275,217.99168 Z M226.484387,0.47904 C101.605674,0.47904 0.364275,97.8586951 0.364275,217.99168 L0.364275,217.99376 C0.364275,338.126745 101.605674,435.5064 226.484387,435.5064 C351.363101,435.5064 452.6045,338.126745 452.6045,217.99376 L452.6045,217.99168 C452.6045,97.8586951 351.363101,0.47904 226.484387,0.47904 Z"></path>
                </g>
                <g id="Group-251" transform="translate(98.142085, 88.000000)">
                    <mask id="mask-3" fill="white">
                        <use xlink:href="#path-2"></use>
                    </mask>
                    <g id="Clip-203"></g>
                    <path d="M28.3634397,119.392 C28.6056397,119.03008 28.8564897,118.68064 29.1246397,118.34992 L29.1851897,118.2792 C29.9572022,117.33904 30.8308522,116.53408 31.7845147,115.86848 L32.1586272,115.6064 C32.4029897,115.44832 32.6516772,115.3048 32.9046897,115.16544 L33.4691022,114.87424 C33.7004897,114.76192 33.9297147,114.65168 34.1675897,114.55392 C34.4292522,114.44784 34.6974022,114.3584 34.9677147,114.27104 L35.5148272,114.088 C35.9624647,113.9632 36.4187522,113.87168 36.8815272,113.80096 L37.3918772,113.7448 C37.7227397,113.70944 38.0557647,113.6824 38.3909522,113.67408 L38.9380647,113.67408 C39.2862272,113.6824 39.6365522,113.70736 39.9890397,113.7448 L40.4734397,113.7968 C40.9837897,113.8696 41.4963022,113.96736 42.0088147,114.10672 C43.6371772,114.91376 45.2720272,115.72288 46.9155272,116.532 C47.2572022,116.78368 47.5923897,117.06864 47.9297397,117.34528 C48.0530022,116.82736 48.1978897,116.28864 48.3341272,115.76032 L48.3341272,115.73744 L48.4357647,115.36096 C48.6152522,114.67872 48.8077147,113.98816 49.0088272,113.28928 C49.0974897,112.98144 49.1861522,112.67152 49.2813022,112.3616 C49.4845772,111.67728 49.7008272,110.98672 49.9278897,110.28784 C50.0403397,109.94464 50.1549522,109.59936 50.2717272,109.25408 C50.5031147,108.56768 50.7453147,107.87712 50.9983272,107.17616 C51.1345647,106.80176 51.2772897,106.42528 51.4200147,106.04672 C51.6773522,105.3624 51.9433397,104.67392 52.2244647,103.97504 C52.3909772,103.5632 52.5639772,103.1472 52.7391397,102.72912 C53.0224272,102.05104 53.3122022,101.3688 53.6171147,100.67616 C53.8160647,100.22688 54.0258272,99.77136 54.2355897,99.31584 C54.5448272,98.64192 54.8562272,97.968 55.1870897,97.28368 C55.4228022,96.79696 55.6714897,96.304 55.9180147,95.81104 C56.2510397,95.14128 56.5883897,94.47152 56.9452022,93.79344 C57.2198397,93.26928 57.5096147,92.74096 57.7972272,92.21056 C58.1562022,91.54912 58.5151772,90.88976 58.8957772,90.22 C59.2136647,89.6584 59.5531772,89.08848 59.8862022,88.52064 C60.2711272,87.86544 60.6517272,87.2144 61.0561147,86.55088 C61.4215772,85.95392 61.8086647,85.35072 62.1892647,84.74752 C62.5979772,84.10064 63.0002022,83.45792 63.4283772,82.8048 C63.8479022,82.16624 64.2912147,81.52144 64.7280397,80.87664 C65.1583772,80.24432 65.5800647,79.61408 66.0277022,78.97344 C66.5034522,78.29744 67.0073147,77.61104 67.5046897,76.92672 C67.9544897,76.30688 68.3934772,75.68912 68.8627397,75.06304 C69.4055272,74.3392 69.9807522,73.60496 70.5473272,72.8728 C71.0122647,72.27584 71.4599022,71.68304 71.9399772,71.07984 C72.5714272,70.28736 73.2396397,69.48448 73.9013647,68.68576 C74.3598147,68.1304 74.7966397,67.58128 75.2702272,67.02176 C76.0422397,66.11072 76.8575022,65.1872 77.6684397,64.26368 C78.0706647,63.80608 78.4512647,63.35472 78.8643022,62.89504 C80.1077397,61.50768 81.3944272,60.10992 82.7308522,58.69968 C82.7308522,58.69968 80.7478397,104.97968 154.093352,121.61968 C155.412477,121.9192 156.673215,122.27072 157.910165,122.64304 C158.206427,122.73248 158.500527,122.82192 158.792465,122.9176 C159.996977,123.3024 161.173377,123.71424 162.297877,124.16976 L162.546565,124.27584 C163.599702,124.71056 164.611752,125.18064 165.597852,125.67152 C165.850865,125.7984 166.101715,125.9232 166.34824,126.05216 C167.371102,126.58672 168.36369,127.14416 169.310865,127.73904 L169.674165,127.9824 C170.519702,128.52528 171.332802,129.09728 172.119952,129.688 C172.329715,129.84608 172.54164,130.00208 172.747077,130.16224 C173.599102,130.82784 174.423015,131.51632 175.20584,132.23808 L175.599415,132.61872 C176.27844,133.25936 176.929352,133.92288 177.55864,134.60304 L178.058177,135.14592 C178.754502,135.93008 179.420552,136.73504 180.054165,137.56704 L180.434765,138.08704 C180.968902,138.81088 181.481415,139.55344 181.97014,140.31056 C182.09989,140.51232 182.233965,140.70992 182.361552,140.91376 C182.91299,141.79776 183.436315,142.70048 183.929365,143.62608 C184.04614,143.84448 184.154265,144.06704 184.266715,144.28752 C184.679752,145.08624 185.071165,145.9016 185.440952,146.72944 C185.536102,146.93952 185.635577,147.14544 185.726402,147.3576 C186.14809,148.32896 186.53734,149.31904 186.904965,150.32576 C187.000115,150.58576 187.088777,150.84992 187.181765,151.112 C187.484515,151.98144 187.772127,152.86128 188.038115,153.75568 C188.100827,153.96784 188.170027,154.17584 188.230577,154.39008 C188.531165,155.43216 188.80364,156.49088 189.05449,157.56 C189.125852,157.86368 189.19289,158.16944 189.26209,158.4752 C189.467527,159.40704 189.65999,160.3472 189.83299,161.29568 C189.869752,161.5016 189.913002,161.70336 189.947602,161.90928 C190.140065,163.0096 190.304415,164.12448 190.453627,165.24768 C190.496877,165.58256 190.537965,165.91952 190.579052,166.25648 C190.702315,167.25904 190.808277,168.26576 190.899102,169.28288 L190.951002,169.81952 C191.04399,170.96144 191.11319,172.11376 191.171577,173.27232 C191.188877,173.64256 191.204015,174.01488 191.219152,174.3872 C191.262402,175.4584 191.290515,176.53376 191.30349,177.61744 C191.305652,177.84624 191.307815,178.07296 191.309977,178.30176 C191.316465,179.38336 191.30349,180.4712 191.281865,181.56112 C191.275377,181.95424 191.264565,182.34736 191.253752,182.74256 C191.221315,183.90112 191.178065,185.06176 191.115352,186.22656 L191.11319,186.25568 L191.11319,186.25776 C190.271977,201.916 186.894152,218.10672 183.064365,232.07808 C218.68939,188.31696 229.25969,156.36192 229.50189,128.77696 C230.684777,-7.11776 126.521477,0.28704 126.521477,0.28704 C126.521477,0.28704 33.8994397,-7.51504 26.0928147,124.8728 C26.5339647,122.83232 27.2908397,121.02896 28.2964022,119.49392 L28.3634397,119.392" id="Fill-202" fill="#A92530" mask="url(#mask-3)"></path>
                    <polyline id="Fill-204" fill="#A92530" mask="url(#mask-3)" points="126.51499 227.92224 126.562565 227.92224 126.51499 227.92224"></polyline>
                    <polyline id="Fill-205" fill="#A92530" mask="url(#mask-3)" points="126.300902 227.92224 126.422002 227.92224 126.300902 227.92224"></polyline>
                    <polyline id="Fill-206" fill="#A92530" mask="url(#mask-3)" points="125.931115 227.91184 126.171152 227.91808 125.931115 227.91184"></polyline>
                    <polyline id="Fill-207" fill="#A92530" mask="url(#mask-3)" points="125.334265 227.8848 125.645665 227.89936 125.334265 227.8848"></polyline>
                    <polyline id="Fill-208" fill="#A92530" mask="url(#mask-3)" points="128.100102 227.8432 128.312027 227.82656 128.100102 227.8432"></polyline>
                    <polyline id="Fill-209" fill="#A92530" mask="url(#mask-3)" points="128.94564 227.7704 129.244065 227.74128 128.94564 227.7704"></polyline>
                    <polyline id="Fill-210" fill="#A92530" mask="url(#mask-3)" points="124.512515 227.82656 124.890952 227.85568 124.512515 227.82656"></polyline>
                    <polyline id="Fill-211" fill="#A92530" mask="url(#mask-3)" points="127.364852 227.89104 127.427565 227.88896 127.364852 227.89104"></polyline>
                    <polyline id="Fill-212" fill="#A92530" mask="url(#mask-3)" points="126.802602 227.916 126.91289 227.91184 126.802602 227.916"></polyline>
                    <polyline id="Fill-213" fill="#A92530" mask="url(#mask-3)" points="123.49614 227.73088 123.91999 227.77456 123.49614 227.73088"></polyline>
                    <path d="M109.868065,224.6816 C110.172977,224.78144 110.475727,224.88128 110.774152,224.97696 C110.475727,224.88128 110.172977,224.78144 109.868065,224.6816" id="Fill-214" fill="#A92530" mask="url(#mask-3)"></path>
                    <path d="M107.430927,223.82464 C107.75314,223.9432 108.079677,224.06592 108.395402,224.17824 C108.079677,224.06592 107.75314,223.9432 107.430927,223.82464" id="Fill-215" fill="#A92530" mask="url(#mask-3)"></path>
                    <path d="M112.186265,225.4096 C112.463065,225.4928 112.73554,225.56976 113.008015,225.64672 C112.737702,225.57184 112.463065,225.4928 112.186265,225.4096" id="Fill-216" fill="#A92530" mask="url(#mask-3)"></path>
                    <path d="M104.89864,222.83664 C105.231665,222.97184 105.566852,223.11536 105.89339,223.24432 C105.566852,223.11536 105.229502,222.97184 104.89864,222.83664" id="Fill-217" fill="#A92530" mask="url(#mask-3)"></path>
                    <polyline id="Fill-218" fill="#A92530" mask="url(#mask-3)" points="122.30244 227.59152 122.74359 227.64768 122.30244 227.59152"></polyline>
                    <polyline id="Fill-219" fill="#A92530" mask="url(#mask-3)" points="116.405302 226.52448 116.911327 226.6368 116.405302 226.52448"></polyline>
                    <polyline id="Fill-220" fill="#A92530" mask="url(#mask-3)" points="130.080952 227.6456 130.284227 227.62272 130.080952 227.6456"></polyline>
                    <polyline id="Fill-221" fill="#A92530" mask="url(#mask-3)" points="121.061165 227.4168 121.36824 227.46464 121.061165 227.4168"></polyline>
                    <path d="M114.37039,226.02112 C114.610427,226.0856 114.839652,226.13968 115.07104,226.2 C114.839652,226.14176 114.608265,226.08352 114.37039,226.02112" id="Fill-222" fill="#A92530" mask="url(#mask-3)"></path>
                    <path d="M146.818702,223.27344 C147.03279,223.19024 147.246877,223.10704 147.463127,223.01968 C147.246877,223.10704 147.03279,223.19024 146.818702,223.27344" id="Fill-223" fill="#A92530" mask="url(#mask-3)"></path>
                    <polyline id="Fill-224" fill="#A92530" mask="url(#mask-3)" points="142.528302 224.81888 142.77699 224.73568 142.528302 224.81888"></polyline>
                    <path d="M144.587002,224.11168 C144.80109,224.0368 145.015177,223.95568 145.231427,223.87664 C145.015177,223.95568 144.798927,224.0368 144.587002,224.11168" id="Fill-225" fill="#A92530" mask="url(#mask-3)"></path>
                    <polyline id="Fill-226" fill="#A92530" mask="url(#mask-3)" points="131.46279 227.46256 131.776352 227.41264 131.46279 227.46256"></polyline>
                    <path d="M65.0610647,249.6208 C78.1204022,245.94752 93.7596022,244.43744 93.7596022,244.43744 L87.0666647,250.49232 L102.480965,236.54592 L102.937252,236.97024 L103.276765,222.16272 L103.276765,222.1648 C86.2232897,214.74752 63.2856522,197.78096 47.1296147,158.93696 C47.1296147,158.93696 30.3269897,164.4656 25.8657522,132.24224 C25.8246647,131.94688 25.8116897,131.66608 25.7814147,131.37488 C25.6992397,133.63168 25.6386897,135.92384 25.6040897,138.25968 C25.6040897,138.25968 25.6386897,206.076 61.5145647,250.69408 L61.5491647,250.68368 C62.2368397,250.17824 63.4391897,249.83296 65.0610647,249.6208" id="Fill-227" fill="#A92530" mask="url(#mask-3)"></path>
                    <path d="M187.29854,191.54304 L187.054177,191.85296 C186.437865,192.65792 185.817227,193.43792 185.194427,194.20544 C184.978177,194.47376 184.76409,194.7504 184.54784,195.01248 C183.74339,195.99008 182.934615,196.94064 182.12584,197.86 C181.740915,198.2968 181.353827,198.70864 180.968902,199.13296 C180.549377,199.59264 180.129852,200.06064 179.710327,200.50784 C179.19349,201.05696 178.676652,201.5832 178.157652,202.10944 C177.87869,202.3944 177.599727,202.68352 177.320765,202.96224 C176.747702,203.53216 176.17464,204.08544 175.601577,204.6304 C175.391815,204.828 175.184215,205.02768 174.974452,205.22112 C174.353815,205.80352 173.733177,206.37136 173.11254,206.92256 L172.963327,207.05776 L172.963327,207.0536 C164.812865,214.26704 156.770527,218.98656 149.72294,222.07536 L149.72294,237.1408 L150.36304,236.54592 L166.743977,251.36592 L166.59044,251.76736 L166.715865,251.79648 L166.940765,251.36592 L159.283352,244.43744 C159.283352,244.43744 173.77859,245.83728 186.513552,249.21936 C175.88054,226.00448 184.532702,205.29808 187.382877,191.41616 L187.292052,191.5368 L187.29854,191.54304" id="Fill-228" fill="#A92530" mask="url(#mask-3)"></path>
                    <polyline id="Fill-229" fill="#A92530" mask="url(#mask-3)" points="134.37784 226.95504 134.745465 226.88432 134.37784 226.95504"></polyline>
                    <polyline id="Fill-230" fill="#A92530" mask="url(#mask-3)" points="132.797052 227.24832 133.233877 227.17136 132.797052 227.24832"></polyline>
                    <polyline id="Fill-231" fill="#A92530" mask="url(#mask-3)" points="140.030615 225.58016 140.558265 225.42832 140.030615 225.58016"></polyline>
                    <polyline id="Fill-232" fill="#A92530" mask="url(#mask-3)" points="138.093015 226.11056 138.648777 225.96288 138.093015 226.11056"></polyline>
                    <polyline id="Fill-233" fill="#A92530" mask="url(#mask-3)" points="136.356527 226.53488 136.693877 226.45376 136.356527 226.53488"></polyline>
                    <path d="M47.1296147,158.93696 C63.2856522,197.78096 86.2232897,214.74752 103.276765,222.1648 C103.828202,222.40192 104.36234,222.61824 104.89864,222.83664 C105.229502,222.97184 105.566852,223.11536 105.89339,223.24432 C106.414552,223.45024 106.92274,223.63744 107.430927,223.82464 C107.75314,223.9432 108.079677,224.06592 108.395402,224.17824 C108.89494,224.35504 109.383665,224.51936 109.868065,224.6816 C110.172977,224.78144 110.475727,224.88128 110.774152,224.97696 C111.252065,225.1288 111.72349,225.27232 112.186265,225.4096 C112.463065,225.4928 112.737702,225.57184 113.008015,225.64672 C113.47079,225.77776 113.92924,225.90672 114.37039,226.02112 C114.608265,226.08352 114.839652,226.14176 115.07104,226.2 C115.523002,226.31232 115.974965,226.42672 116.405302,226.52448 L116.911327,226.6368 C118.457515,226.98 119.850165,227.23376 121.061165,227.4168 L121.36824,227.46464 C121.699102,227.51456 122.001852,227.552 122.30244,227.59152 L122.74359,227.64768 C123.009577,227.67888 123.256102,227.70592 123.49614,227.73088 L123.91999,227.77456 C124.129752,227.79328 124.328702,227.812 124.512515,227.82656 L124.890952,227.85568 L125.334265,227.8848 L125.645665,227.89936 L125.931115,227.91184 L126.171152,227.91808 L126.300902,227.92224 L126.562565,227.92224 L126.802602,227.916 L126.91289,227.91184 L127.364852,227.89104 L127.427565,227.88896 C127.62219,227.87648 127.851415,227.86192 128.100102,227.8432 L128.312027,227.82656 C128.508815,227.80992 128.72074,227.7912 128.94564,227.7704 L129.244065,227.74128 C129.505727,227.71424 129.786852,227.68304 130.080952,227.6456 L130.284227,227.62272 C130.651852,227.57696 131.04759,227.52288 131.46279,227.46256 L131.776352,227.41264 C132.10289,227.36272 132.444565,227.30864 132.797052,227.24832 L133.233877,227.17136 C133.601502,227.10688 133.984265,227.03408 134.37784,226.95504 L134.745465,226.88432 C135.262302,226.77824 135.800765,226.66384 136.356527,226.53488 L136.693877,226.45376 C137.148002,226.34768 137.615102,226.23328 138.093015,226.11056 L138.648777,225.96288 C139.098577,225.84432 139.561352,225.71536 140.030615,225.58016 L140.558265,225.42832 C141.200527,225.23904 141.853602,225.03936 142.528302,224.81888 L142.77699,224.73568 C143.369515,224.54016 143.972852,224.33216 144.587002,224.11168 C144.798927,224.0368 145.015177,223.95568 145.231427,223.87664 C145.75259,223.68528 146.282402,223.48352 146.818702,223.27344 C147.03279,223.19024 147.246877,223.10704 147.463127,223.01968 C148.204865,222.72224 148.955252,222.41024 149.72294,222.07536 C156.770527,218.98656 164.812865,214.26704 172.963327,207.0536 L172.963327,207.05776 L173.11254,206.92256 C173.733177,206.37136 174.353815,205.80352 174.974452,205.22112 C175.184215,205.02768 175.391815,204.828 175.601577,204.6304 C176.17464,204.08544 176.747702,203.53216 177.320765,202.96224 C177.599727,202.68352 177.87869,202.3944 178.157652,202.10944 C178.676652,201.5832 179.19349,201.05696 179.710327,200.50784 C180.129852,200.06064 180.549377,199.59264 180.968902,199.13296 C181.353827,198.70864 181.740915,198.2968 182.12584,197.86 C182.934615,196.94064 183.74339,195.99008 184.54784,195.01248 C184.76409,194.7504 184.978177,194.47376 185.194427,194.20544 C185.817227,193.43792 186.437865,192.65792 187.054177,191.85296 L187.29854,191.54304 L187.292052,191.5368 L187.382877,191.41616 C188.637127,189.76672 189.882727,188.06112 191.11319,186.25776 L191.11319,186.25568 L191.115352,186.22656 C191.178065,185.06176 191.221315,183.90112 191.253752,182.74256 C191.264565,182.34736 191.275377,181.95424 191.281865,181.56112 C191.30349,180.4712 191.316465,179.38336 191.309977,178.30176 C191.307815,178.07296 191.305652,177.84624 191.30349,177.61744 C191.290515,176.53376 191.262402,175.4584 191.219152,174.3872 C191.204015,174.01488 191.188877,173.64256 191.171577,173.27232 C191.11319,172.11376 191.04399,170.96144 190.951002,169.81952 L190.899102,169.28288 C190.808277,168.26576 190.702315,167.25904 190.579052,166.25648 C190.537965,165.91952 190.496877,165.58256 190.453627,165.24768 C190.304415,164.12448 190.140065,163.0096 189.947602,161.90928 C189.913002,161.70336 189.869752,161.5016 189.83299,161.29568 C189.65999,160.3472 189.467527,159.40704 189.26209,158.4752 C189.19289,158.16944 189.125852,157.86368 189.05449,157.56 C188.80364,156.49088 188.531165,155.43216 188.230577,154.39008 C188.170027,154.17584 188.100827,153.96784 188.038115,153.75568 C187.772127,152.86128 187.484515,151.98144 187.181765,151.112 C187.088777,150.84992 187.000115,150.58576 186.904965,150.32576 C186.53734,149.31904 186.14809,148.32896 185.726402,147.3576 C185.635577,147.14544 185.536102,146.93952 185.440952,146.72944 C185.071165,145.9016 184.679752,145.08624 184.266715,144.28752 C184.154265,144.06704 184.04614,143.84448 183.929365,143.62608 C183.436315,142.70048 182.91299,141.79776 182.361552,140.91376 C182.233965,140.70992 182.09989,140.51232 181.97014,140.31056 C181.481415,139.55344 180.968902,138.81088 180.434765,138.08704 L180.054165,137.56704 C179.420552,136.73504 178.754502,135.93008 178.058177,135.14592 L177.55864,134.60304 C176.929352,133.92288 176.27844,133.25936 175.599415,132.61872 L175.20584,132.23808 C174.423015,131.51632 173.599102,130.82784 172.747077,130.16224 C172.54164,130.00208 172.329715,129.84608 172.119952,129.688 C171.332802,129.09728 170.519702,128.52528 169.674165,127.9824 L169.310865,127.73904 C168.36369,127.14416 167.371102,126.58672 166.34824,126.05216 C166.101715,125.9232 165.850865,125.7984 165.597852,125.67152 C164.611752,125.18064 163.599702,124.71056 162.546565,124.27584 L162.297877,124.16976 C161.173377,123.71424 159.996977,123.3024 158.792465,122.9176 C158.500527,122.82192 158.206427,122.73248 157.910165,122.64304 C156.673215,122.27072 155.412477,121.9192 154.093352,121.61968 C80.7478397,104.97968 82.7308522,58.69968 82.7308522,58.69968 C81.3944272,60.10992 80.1077397,61.50768 78.8643022,62.89504 C78.4512647,63.35472 78.0706647,63.80608 77.6684397,64.26368 C76.8575022,65.1872 76.0422397,66.11072 75.2702272,67.02176 C74.7966397,67.58128 74.3598147,68.1304 73.9013647,68.68576 C73.2396397,69.48448 72.5714272,70.28736 71.9399772,71.07984 C71.4599022,71.68304 71.0122647,72.27584 70.5473272,72.8728 C69.9807522,73.60496 69.4055272,74.3392 68.8627397,75.06304 C68.3934772,75.68912 67.9544897,76.30688 67.5046897,76.92672 C67.0073147,77.61104 66.5034522,78.29744 66.0277022,78.97344 C65.5800647,79.61408 65.1583772,80.24432 64.7280397,80.87664 C64.2912147,81.52144 63.8479022,82.16624 63.4283772,82.8048 C63.0002022,83.45792 62.5979772,84.10064 62.1892647,84.74752 C61.8086647,85.35072 61.4215772,85.95392 61.0561147,86.55088 C60.6517272,87.2144 60.2711272,87.86544 59.8862022,88.52064 C59.5531772,89.08848 59.2136647,89.6584 58.8957772,90.22 C58.5151772,90.88976 58.1562022,91.54912 57.7972272,92.21056 C57.5096147,92.74096 57.2198397,93.26928 56.9452022,93.79344 C56.5883897,94.47152 56.2510397,95.14128 55.9180147,95.81104 C55.6714897,96.304 55.4228022,96.79696 55.1870897,97.28368 C54.8562272,97.968 54.5448272,98.64192 54.2355897,99.31584 C54.0258272,99.77136 53.8160647,100.22688 53.6171147,100.67616 C53.3122022,101.3688 53.0224272,102.05104 52.7391397,102.72912 C52.5639772,103.1472 52.3909772,103.5632 52.2244647,103.97504 C51.9433397,104.67392 51.6773522,105.3624 51.4200147,106.04672 C51.2772897,106.42528 51.1345647,106.80176 50.9983272,107.17616 C50.7453147,107.87712 50.5031147,108.56768 50.2717272,109.25408 C50.1549522,109.59936 50.0403397,109.94464 49.9278897,110.28784 C49.7008272,110.98672 49.4845772,111.67728 49.2813022,112.3616 C49.1861522,112.67152 49.0974897,112.98144 49.0088272,113.28928 C48.8077147,113.98816 48.6152522,114.67872 48.4357647,115.36096 L48.3341272,115.73744 L48.3341272,115.76032 C48.3795397,116.54448 48.4379272,117.25792 48.5114522,117.8112 C47.9902897,117.33072 47.4539897,116.9272 46.9155272,116.532 C45.2720272,115.72288 43.6371772,114.91376 42.0088147,114.10672 C41.4963022,113.96736 40.9837897,113.8696 40.4734397,113.7968 L39.9890397,113.7448 C39.6365522,113.70736 39.2862272,113.6824 38.9380647,113.67408 L38.3909522,113.67408 C38.0557647,113.6824 37.7227397,113.70944 37.3918772,113.7448 L36.8815272,113.80096 C36.4187522,113.87168 35.9624647,113.9632 35.5148272,114.088 L34.9677147,114.27104 C34.6974022,114.3584 34.4292522,114.44784 34.1675897,114.55392 C33.9297147,114.65168 33.7004897,114.76192 33.4691022,114.87424 L32.9046897,115.16544 C32.6516772,115.3048 32.4029897,115.44832 32.1586272,115.6064 L31.7845147,115.86848 C30.8308522,116.53408 29.9572022,117.33904 29.1851897,118.2792 L29.1246397,118.34992 C28.8564897,118.68064 28.6056397,119.03008 28.3634397,119.392 L28.2964022,119.49392 C27.2908397,121.02896 26.5339647,122.83232 26.0928147,124.8728 C25.6668022,126.83632 25.5457022,129.01616 25.7814147,131.37488 C25.8116897,131.66608 25.8246647,131.94688 25.8657522,132.24224 C30.3269897,164.4656 47.1296147,158.93696 47.1296147,158.93696" id="Fill-234" fill="#F6CAB1" mask="url(#mask-3)"></path>
                    <path d="M166.715865,251.79648 L166.59044,251.76736 L166.231465,252.7096 C166.415277,252.3664 166.58179,252.05232 166.715865,251.79648" id="Fill-235" fill="#7C5451" mask="url(#mask-3)"></path>
                    <path d="M193.917952,290.18704 C193.917952,290.18704 173.125515,304.03984 164.665815,311.15552 C156.188815,318.25664 138.198977,348.12752 138.198977,348.12752 L251.847002,348.12752 C251.847002,348.12752 238.061065,276.10752 225.356377,268.04752 C224.31189,267.38608 222.683527,266.64768 220.598877,265.85728 L182.889202,284.90592 L193.917952,290.18704" id="Fill-236" fill="#7C5451" mask="url(#mask-3)"></path>
                    <path d="M115.012652,345.68976 C114.919665,347.24144 114.841815,348.12752 114.841815,348.12752 L114.850465,348.12752 L115.040765,345.73344 L115.012652,345.68976" id="Fill-237" fill="#7C5451" mask="url(#mask-3)"></path>
                    <path d="M138.017327,345.47968 L137.978402,345.57744 L138.190327,348.12752 L138.198977,348.12752 C138.198977,348.12752 138.11464,347.17072 138.017327,345.47968" id="Fill-238" fill="#7C5451" mask="url(#mask-3)"></path>
                    <path d="M88.3749772,311.15552 C79.9152772,304.03984 59.1228397,290.18704 59.1228397,290.18704 L70.1515897,284.90592 L31.9358897,265.60144 C29.5182147,266.4896 27.6519772,267.31536 26.4972022,268.04752 C13.7925147,276.10752 0.00657717305,348.12752 0.00657717305,348.12752 L114.841815,348.12752 C114.841815,348.12752 96.8519772,318.25664 88.3749772,311.15552" id="Fill-239" fill="#7C5451" mask="url(#mask-3)"></path>
                    <path d="M126.422002,258.77696 L149.72294,237.1408 L149.72294,230.69488 C142.296915,233.11392 131.828252,236.2776 127.118327,236.54592 C122.512202,236.81216 111.336402,233.16384 103.092952,230.18528 L102.937252,236.97024 L126.422002,258.77696" id="Fill-240" fill="#F6CAB1" mask="url(#mask-3)"></path>
                    <path d="M146.779777,287.89696 C147.521515,286.61568 148.473015,284.94128 149.55859,283.01104 L144.997877,278.23328 L133.08899,286.85696 L137.978402,345.57744 L138.017327,345.47968 C137.489677,336.31104 136.587915,305.5104 146.779777,287.89696" id="Fill-241" fill="#CACBC7" mask="url(#mask-3)"></path>
                    <path d="M103.41084,282.88208 C104.524527,284.86432 105.50414,286.58656 106.261015,287.89696 C116.537215,305.65808 115.535977,336.8144 115.012652,345.68976 L115.040765,345.73344 L119.755015,286.85696 L107.846127,278.23536 L103.41084,282.88208" id="Fill-242" fill="#CACBC7" mask="url(#mask-3)"></path>
                    <path d="M126.422002,285.64224 C124.259502,285.29696 119.755015,286.85696 119.755015,286.85696 C124.839052,285.22624 129.10134,285.78576 131.356827,286.33072 C129.851727,285.91264 127.719502,285.43424 126.422002,285.64224" id="Fill-243" fill="#CACBC7" mask="url(#mask-3)"></path>
                    <path d="M126.422002,258.77696 L107.846127,278.23536 L119.755015,286.85696 C119.755015,286.85696 123.078777,285.77744 126.417677,285.77744 C127.955215,285.77744 130.26909,286.0312 131.356827,286.33072 C132.45754,286.59488 133.08899,286.85696 133.08899,286.85696 L144.997877,278.23328 L126.422002,258.77696" id="Fill-244" fill="#C72A2A" mask="url(#mask-3)"></path>
                    <path d="M133.08899,286.85696 C133.08899,286.85696 132.45754,286.59488 131.356827,286.33072 C129.10134,285.78576 124.839052,285.22624 119.755015,286.85696 L115.040765,345.73344 L114.850465,348.12752 L114.841815,348.21696 L138.198977,348.21696 L138.190327,348.12752 L133.08899,286.85696" id="Fill-245" fill="#B1272A" mask="url(#mask-3)"></path>
                    <path d="M126.422002,258.77696 L102.937252,236.97024 L102.480965,236.54592 L87.0666647,250.49232 L86.1000272,251.36592 C87.8689522,254.78752 97.5483022,272.4592 103.41084,282.88208 L126.422002,258.77696" id="Fill-246" fill="#FFFFFF" mask="url(#mask-3)"></path>
                    <path d="M126.422002,258.77696 L149.55859,283.01104 C154.86104,273.58448 163.359665,258.09472 166.231465,252.7096 L166.59044,251.76736 L166.743977,251.36592 L150.36304,236.54592 L149.72294,237.1408 L126.422002,258.77696" id="Fill-247" fill="#FFFFFF" mask="url(#mask-3)"></path>
                    <path d="M106.261015,287.89696 C105.50414,286.58656 104.524527,284.86432 103.41084,282.88208 C97.5483022,272.4592 87.8689522,254.78752 86.1000272,251.36592 L87.0666647,250.49232 L93.7596022,244.43744 C93.7596022,244.43744 78.1204022,245.94752 65.0610647,249.6208 C63.8630397,249.95568 62.6888022,250.30928 61.5491647,250.68368 L61.5145647,250.69408 C60.1954397,251.12672 58.9217272,251.58432 57.7193772,252.06896 C44.1561772,257.52272 29.4446897,264.34304 29.4446897,264.34304 L70.1515897,284.90592 L59.1228397,290.18704 C59.1228397,290.18704 79.9152772,304.03984 88.3749772,311.15552 C96.8519772,318.25664 114.841815,348.12752 114.841815,348.12752 C114.841815,348.12752 114.919665,347.24144 115.012652,345.68976 C115.535977,336.8144 116.537215,305.65808 106.261015,287.89696" id="Fill-248" fill="#3E2D1E" mask="url(#mask-3)"></path>
                    <path d="M166.940765,251.36592 L166.715865,251.79648 C166.58179,252.05232 166.415277,252.3664 166.231465,252.7096 C163.359665,258.09472 154.86104,273.58448 149.55859,283.01104 C148.473015,284.94128 147.521515,286.61568 146.779777,287.89696 C136.587915,305.5104 137.489677,336.31104 138.017327,345.47968 C138.11464,347.17072 138.198977,348.12752 138.198977,348.12752 C138.198977,348.12752 156.188815,318.25664 164.665815,311.15552 C173.125515,304.03984 193.917952,290.18704 193.917952,290.18704 L182.889202,284.90592 L223.596102,264.34304 C223.596102,264.34304 208.886777,257.52272 195.321415,252.06896 C192.650727,250.9936 189.63404,250.0472 186.513552,249.21936 C173.77859,245.83728 159.283352,244.43744 159.283352,244.43744 L166.940765,251.36592" id="Fill-249" fill="#3E2D1E" mask="url(#mask-3)"></path>
                    <path d="M127.118327,236.54592 C131.828252,236.2776 142.296915,233.11392 149.72294,230.69488 L149.72294,222.07536 C148.955252,222.41024 148.204865,222.72224 147.463127,223.01968 C147.246877,223.10704 147.03279,223.19024 146.818702,223.27344 C146.282402,223.48352 145.75259,223.68528 145.231427,223.87664 C145.015177,223.95568 144.80109,224.0368 144.587002,224.11168 C143.972852,224.33216 143.369515,224.54016 142.77699,224.73568 L142.528302,224.81888 C141.853602,225.03936 141.200527,225.23904 140.558265,225.42832 L140.030615,225.58016 C139.561352,225.71536 139.098577,225.84432 138.648777,225.96288 L138.093015,226.11056 C137.615102,226.23328 137.148002,226.34768 136.693877,226.45376 L136.356527,226.53488 C135.800765,226.66384 135.262302,226.77824 134.745465,226.88432 L134.37784,226.95504 C133.984265,227.03408 133.601502,227.10688 133.233877,227.17136 L132.797052,227.24832 C132.444565,227.30864 132.10289,227.36272 131.776352,227.41264 L131.46279,227.46256 C131.04759,227.52288 130.651852,227.57696 130.284227,227.62272 L130.080952,227.6456 C129.786852,227.68304 129.505727,227.71424 129.244065,227.74128 L128.94564,227.7704 C128.72074,227.7912 128.508815,227.80992 128.312027,227.82656 L128.100102,227.8432 C127.851415,227.86192 127.62219,227.87648 127.427565,227.88896 L127.364852,227.89104 L126.91289,227.91184 L126.802602,227.916 L126.562565,227.92224 L126.300902,227.92224 L126.171152,227.91808 L125.931115,227.91184 L125.645665,227.89936 L125.334265,227.8848 L124.890952,227.85568 L124.512515,227.82656 C124.328702,227.812 124.129752,227.79328 123.91999,227.77456 L123.49614,227.73088 C123.256102,227.70592 123.009577,227.67888 122.74359,227.64768 L122.30244,227.59152 C122.001852,227.552 121.699102,227.51456 121.36824,227.46464 L121.061165,227.4168 C119.850165,227.23376 118.457515,226.98 116.911327,226.6368 L116.405302,226.52448 C115.974965,226.42672 115.523002,226.31232 115.07104,226.2 C114.839652,226.13968 114.610427,226.0856 114.37039,226.02112 C113.92924,225.90672 113.47079,225.77776 113.008015,225.64672 C112.73554,225.56976 112.463065,225.4928 112.186265,225.4096 C111.72349,225.27232 111.252065,225.1288 110.774152,224.97696 C110.475727,224.88128 110.172977,224.78144 109.868065,224.6816 C109.383665,224.51936 108.89494,224.35504 108.395402,224.17824 C108.079677,224.06592 107.75314,223.9432 107.430927,223.82464 C106.92274,223.63744 106.414552,223.45024 105.89339,223.24432 C105.566852,223.11536 105.231665,222.97184 104.89864,222.83664 C104.36234,222.61824 103.828202,222.40192 103.276765,222.1648 L103.276765,222.16272 L103.092952,230.18528 C111.336402,233.16384 122.512202,236.81216 127.118327,236.54592" id="Fill-250" fill="#D2AB94" mask="url(#mask-3)"></path>
                </g>
            </g>
        </g>
    </g>
</svg>
