
<svg width="327px" height="315px" viewBox="0 0 327 315" version="1.1" xmlns="http://www.w3.org/2000/svg" xmlns:xlink="http://www.w3.org/1999/xlink">
    <!-- Generator: Sketch 43 (38999) - http://www.bohemiancoding.com/sketch -->
    <desc>Created with Sketch.</desc>
    <defs>
        <path d="M15.6579446,156.29496 C15.6579446,78.4470389 81.4579874,15.1120717 162.337401,15.1120717 C243.21526,15.1120717 309.015303,78.4470389 309.015303,156.29496 C309.015303,234.144377 243.21526,297.479345 162.337401,297.479345 C81.4579874,297.479345 15.6579446,234.144377 15.6579446,156.29496 Z M162.337401,0.145634943 L162.337401,0.145634943 C72.7412465,0.145634943 0.108995437,70.0568544 0.108995437,156.29496 C0.108995437,242.534562 72.7412465,312.445781 162.337401,312.445781 C251.933556,312.445781 324.564252,242.534562 324.564252,156.29496 C324.564252,70.0568544 251.933556,0.145634943 162.337401,0.145634943 L162.337401,0.145634943 Z" id="path-1"></path>
        <path d="M264.981923,0.264905931 C273.430407,9.40797195 280.779592,19.5130103 286.829917,30.3879347 L286.829909,177.609631 C259.499527,226.733579 205.666027,260.148101 143.723601,260.148101 C81.6608662,260.148101 27.7378399,226.603652 0.457130882,177.323201 L0.457139104,30.6743355 C6.53763428,19.6904003 13.9416859,9.48818991 22.4644127,0.264905931 L264.981923,0.264905931 L264.981923,0.264905931 Z" id="path-2"></path>
    </defs>
    <g id="Page-1" stroke="none" stroke-width="1" fill="none" fill-rule="evenodd">
        <g id="53032-O7D1DN" transform="translate(-1156.000000, -1114.000000)">
            <g id="Group" transform="translate(1157.000000, 1115.000000)">
                <path d="M309.015303,156.29496 C309.015303,78.4470389 243.21526,15.1120717 162.337401,15.1120717 C81.4579874,15.1120717 15.6579446,78.4470389 15.6579446,156.29496 C15.6579446,234.144377 81.4579874,297.479345 162.337401,297.479345 C243.21526,297.479345 309.015303,234.144377 309.015303,156.29496" id="Fill-180" fill="#56ABCE"></path>
                <g id="Fill-181">
                    <use fill="#FFFFFF" fill-rule="evenodd" xlink:href="#path-1"></use>
                    <path stroke="#56ABCD" stroke-width="1" d="M16.1579446,156.29496 C16.1579446,78.7273121 81.7301885,15.6120717 162.337401,15.6120717 C242.943299,15.6120717 308.515303,78.727543 308.515303,156.29496 C308.515303,233.863642 242.943539,296.979345 162.337401,296.979345 C81.7299485,296.979345 16.1579446,233.863873 16.1579446,156.29496 Z M162.337401,-0.354365057 C72.4695266,-0.354365057 -0.391004563,69.7761181 -0.391004563,156.29496 C-0.391004563,242.815066 72.4692855,312.945781 162.337401,312.945781 C252.205222,312.945781 325.064252,242.81535 325.064252,156.29496 C325.064252,69.7758342 252.20498,-0.354365057 162.337401,-0.354365057 Z"></path>
                </g>
                <g id="Group-199" transform="translate(18.613800, 52.296184)">
                    <mask id="mask-3" fill="white">
                        <use xlink:href="#path-2"></use>
                    </mask>
                    <g id="Clip-183"></g>
                    <path d="M195.013365,94.4501892 C195.013365,94.4501892 198.70624,24.6063187 139.879901,24.8562582 C81.0535619,24.6063187 84.7464374,94.4501892 84.7464374,94.4501892 C77.9437721,94.0760283 70.3636594,93.8889479 71.9185543,111.661592 C73.4734493,129.434235 90.641044,131.117959 90.641044,131.117959 C91.6781589,149.077683 103.599538,166.537529 112.409573,174.020747 C121.221162,181.503965 139.879901,181.503965 139.879901,181.503965 C139.879901,181.503965 158.53864,181.503965 167.35023,174.020747 C176.160264,166.537529 188.081643,149.077683 189.118758,131.117959 C189.118758,131.117959 206.286353,129.434235 207.841248,111.661592 C209.396143,93.8889479 201.81603,94.0760283 195.013365,94.4501892" id="Fill-182" fill="#EDC1A8" mask="url(#mask-3)"></path>
                    <path d="M195.265258,33.3886238 C199.409053,28.7011358 203.587055,24.1243994 200.785135,14.1612425 C197.82306,16.8417313 187.891946,16.0230672 186.128695,14.8467053 C190.107671,12.5299009 194.843881,7.85887595 190.976858,0.264905931 C165.980367,6.86211126 112.325608,-9.0187748 95.7317699,19.9188307 C95.9261318,16.3912416 94.5034029,14.7928261 91.7823368,14.3752625 C92.889422,17.5765834 92.8971965,18.9340392 91.661055,21.072743 C90.0144213,18.2470797 88.8311463,16.4585905 84.6749122,18.2635428 C87.3166787,20.9455283 87.5281444,22.3658431 87.2249399,27.1476197 C79.4582398,30.8143967 70.3325615,44.0237738 74.2851044,70.9588701 C78.2127689,90.8477679 79.5313198,94.1284109 79.5204356,94.0490887 C79.5188807,94.0445988 84.9423541,97.9074361 87.3384472,109.79378 C87.3446668,109.876096 89.8775906,76.0444653 91.0002247,70.5981789 C92.1213039,65.3689059 102.08818,48.0123292 102.09751,47.9464769 C102.052418,47.7504166 124.626382,58.6759154 151.958325,63.2765981 C159.250782,64.4350003 175.03141,64.8869867 190.078128,60.8729883 C190.434199,75.8858211 190.79338,90.8447746 191.154116,105.746856 C191.152561,105.721413 194.044665,92.8891899 201.929537,94.2271893 C201.931092,94.203243 203.624373,75.4383246 204.053524,58.656459 C212.756271,51.9634685 213.812044,42.2622242 212.653648,35.3222874 C210.47524,36.155918 199.903509,36.0197234 195.265258,33.3886238" id="Fill-184" fill="#CA672D" mask="url(#mask-3)"></path>
                    <path d="M127.537145,228.955053 L132.816014,221.55415 L114.236574,247.603233 L98.9053104,202.389628 L29.222695,220.91658 C29.222695,220.91658 16.9778975,232.702649 0.457139104,261.325959 L131.845759,261.325959 L137.287891,243.116296 C134.038161,238.395882 130.788431,233.675467 127.537145,228.955053" id="Fill-185" fill="#D2D2CC" mask="url(#mask-3)"></path>
                    <path d="M258.064354,220.91658 L188.57921,201.810427 L173.052029,247.603233 L158.83096,227.66345 L159.908502,229.176557 L149.338327,243.116296 L153.225564,261.325959 L286.829909,261.325959 C270.309151,232.702649 258.064354,220.91658 258.064354,220.91658" id="Fill-186" fill="#D2D2CC" mask="url(#mask-3)"></path>
                    <path d="M168.634573,172.878808 C168.199202,173.282902 167.771606,173.663049 167.35023,174.020747 C167.771606,173.663049 168.199202,173.282902 168.634573,172.878808" id="Fill-187" fill="#E6BBA2" mask="url(#mask-3)"></path>
                    <polyline id="Fill-188" fill="#E6BBA2" mask="url(#mask-3)" points="113.386047 174.787029 113.288088 174.718183 113.001988 177.222068 113.367388 174.773559 113.386047 174.787029"></polyline>
                    <path d="M168.66878,172.845882 C169.091712,172.452264 169.519308,172.039191 169.951569,171.605164 C169.519308,172.040687 169.091712,172.452264 168.66878,172.845882" id="Fill-189" fill="#E6BBA2" mask="url(#mask-3)"></path>
                    <polyline id="Fill-190" fill="#E6BBA2" mask="url(#mask-3)" points="132.816014 221.55415 132.816014 221.55415 135.538635 217.736212 132.816014 221.55415"></polyline>
                    <path d="M135.538635,217.736212 L151.748414,217.736212 L176.236454,194.167068 L176.220905,194.180537 L175.752882,190.733767 L172.650866,168.691199 C171.761466,169.719393 170.875176,170.672755 170.004435,171.551285 C170.872067,170.677245 171.753692,169.726876 172.641537,168.703172 L174.048717,178.624423 C169.993551,183.726481 150.764166,194.101215 142.535662,194.180537 C134.599478,194.25537 114.133951,180.888845 112.692564,179.939973 L111.066144,194.180537 L135.538635,217.736212" id="Fill-191" fill="#E6BBA2" mask="url(#mask-3)"></path>
                    <path d="M143.378415,241.743873 C140.515853,241.7319 138.354549,242.60145 137.287891,243.116296 L131.845759,261.325959 L153.225564,261.325959 L149.338327,243.116296 C148.276334,242.604444 146.169451,241.757343 143.378415,241.743873" id="Fill-192" fill="#5CA2C9" mask="url(#mask-3)"></path>
                    <polyline id="Fill-193" fill="#F2F1EE" mask="url(#mask-3)" points="132.816014 221.55415 135.538635 217.736212 107.486775 190.733767 98.675186 201.708655 98.9053104 202.389628 114.236574 247.603233 132.816014 221.55415"></polyline>
                    <polyline id="Fill-194" fill="#CACBC7" mask="url(#mask-3)" points="111.459532 190.733767 107.486775 190.733767 111.066144 194.180537 111.459532 190.733767"></polyline>
                    <polyline id="Fill-195" fill="#F2F1EE" mask="url(#mask-3)" points="151.748414 217.736212 151.748414 217.736212 173.052029 247.603233 188.57921 201.810427 188.613417 201.708655 179.801828 190.733767 176.236454 194.167068 151.748414 217.736212"></polyline>
                    <polyline id="Fill-196" fill="#CACBC7" mask="url(#mask-3)" points="176.220905 194.180537 176.236454 194.167068 179.801828 190.733767 175.752882 190.733767 176.220905 194.180537"></polyline>
                    <path d="M151.748414,217.736212 L135.538635,217.736212 L127.537145,228.955053 C130.788431,233.675467 134.038161,238.395882 137.287891,243.116296 C138.354549,242.60145 140.515853,241.7319 143.378415,241.743873 C146.169451,241.757343 148.276334,242.604444 149.338327,243.116296 L159.908502,229.176557 L158.83096,227.66345 L151.748414,217.736212" id="Fill-197" fill="#56A0C0" mask="url(#mask-3)"></path>
                    <path d="M142.535662,194.180537 C150.764166,194.101215 169.993551,183.726481 174.048717,178.624423 L172.641537,168.703172 C171.753692,169.726876 170.872067,170.677245 170.004435,171.551285 L169.951569,171.605164 C169.519308,172.039191 169.091712,172.452264 168.66878,172.845882 L168.634573,172.878808 C168.199202,173.282902 167.771606,173.663049 167.35023,174.020747 C158.53864,181.503965 139.879901,181.503965 139.879901,181.503965 C139.879901,181.503965 122.524164,181.502469 113.386047,174.787029 L113.367388,174.773559 L112.603935,179.8831 L112.692564,179.939973 C114.133951,180.888845 134.599478,194.25537 142.535662,194.180537" id="Fill-198" fill="#D69E82" mask="url(#mask-3)"></path>
                </g>
            </g>
        </g>
    </g>
</svg>
